<svg id="Layer_5" enable-background="new 0 0 64 64" height="512" viewBox="0 0 64 64" width="512" xmlns="http://www.w3.org/2000/svg"><path style="fill:#8fcbb6;" d="m42.79 56.599.421 1.955c6.083-1.308 11.29-5.469 13.928-11.131l-1.812-.845c-2.377 5.097-7.063 8.843-12.537 10.021z"/><path style="fill:#8fcbb6;" d="m56.053 44.766 1.894.643c.244-.717.448-1.457.607-2.198l-1.955-.42c-.144.666-.328 1.33-.546 1.975z"/><path style="fill:#8fcbb6;" d="m58.121 24.231-16.72-22.039c-.567-.746-1.464-1.192-2.401-1.192s-1.834.446-2.401 1.192l-12.751 16.808h-.848v-5c0-1.654-1.346-3-3-3h-12c-1.654 0-3 1.346-3 3v5h-1c-1.654 0-3 1.346-3 3v2c0 1.654 1.346 3 3 3h1v27c0 4.962 4.038 9 9 9 4.081 0 7.53-2.732 8.63-6.462 4.423 4.124 10.283 6.462 16.37 6.462 13.234 0 24-10.767 24-24v-.263c0-5.206-1.733-10.358-4.879-14.506zm-51.121-10.231c0-.551.449-1 1-1h1v4h2v-4h2v4h2v-4h2v4h2v-4h1c.551 0 1 .449 1 1v5h-14zm-4 10v-2c0-.551.449-1 1-1h20c.551 0 1 .449 1 1v2c0 .551-.449 1-1 1h-20c-.551 0-1-.449-1-1zm18 24.981c-.069.417-1.464 2.019-4 2.019-1.5 0-3.089-.879-4.659-1.896 1.692-1.365 3.318-2.104 4.659-2.104 2.536 0 3.931 1.602 4 1.976zm0-21.981v2h-6v2h6v2h-4v2h4v2h-6v2h6v2h-4v2h4v3.185c-1.039-.689-2.418-1.185-4-1.185-2.398 0-4.717 1.5-6.397 2.949-1.239-.818-2.434-1.536-3.603-1.818v-19.131zm-7 34c-3.86 0-7-3.14-7-7v-5.781c.931.35 2.024 1.078 3.167 1.843 2.055 1.377 4.385 2.938 6.833 2.938 1.582 0 2.961-.496 4-1.185v2.185c0 3.86-3.14 7-7 7zm47-22c0 12.131-9.869 22-22 22-6.051 0-11.857-2.518-16.004-6.915 0-.029.004-.056.004-.085v-27h1c1.654 0 3-1.346 3-3v-2c0-.95-.452-1.788-1.143-2.338l12.336-16.26c.381-.503 1.234-.503 1.615 0l16.719 22.038c2.885 3.803 4.473 8.524 4.473 13.297z"/><path style="fill:#8fcbb6;" d="m34.991 53c-.011-.451.223-1.542 1.345-2.664l-1.414-1.414c-1.132 1.132-1.597 2.252-1.788 2.992-.283 1.101-.142 2.035.387 2.563.431.432 1.062.523 1.515.523 1.329 0 2.84-.718 4.042-1.922l-1.414-1.414c-1.012 1.012-2.137 1.339-2.673 1.336z"/><path style="fill:#8fcbb6;" d="m43.307 44.693c-2.705-2.707-7.736-2.078-11.213 1.4s-4.105 8.508-1.4 11.213c1.132 1.133 2.672 1.681 4.334 1.681 2.31 0 4.857-1.059 6.879-3.081 3.477-3.477 4.105-8.507 1.4-11.213zm-2.814 9.8c-2.698 2.697-6.459 3.326-8.385 1.4s-1.298-5.688 1.4-8.385c1.642-1.642 3.676-2.517 5.453-2.517 1.143 0 2.179.363 2.933 1.117 1.924 1.925 1.296 5.687-1.401 8.385z"/><path style="fill:#8fcbb6;" d="m36.866 34.914c-.19-.74-.655-1.86-1.788-2.992l-1.414 1.414c1.122 1.122 1.356 2.212 1.345 2.664-.564 0-1.662-.324-2.673-1.335l-1.414 1.414c1.203 1.203 2.714 1.921 4.043 1.921.453 0 1.083-.091 1.513-.522.529-.529.67-1.463.388-2.564z"/><path style="fill:#8fcbb6;" d="m39.307 40.307c2.706-2.706 2.078-7.736-1.4-11.213-3.478-3.478-8.509-4.106-11.213-1.4-2.706 2.706-2.078 7.736 1.4 11.213 2.022 2.022 4.569 3.081 6.879 3.081 1.662-.001 3.201-.549 4.334-1.681zm-11.2-11.2c.754-.754 1.79-1.117 2.933-1.117 1.776 0 3.811.875 5.453 2.517 2.698 2.698 3.326 6.459 1.4 8.385-1.928 1.925-5.688 1.297-8.385-1.4-2.698-2.697-3.326-6.459-1.401-8.385z"/><path style="fill:#8fcbb6;" d="m47.521 40.477c.431.432 1.062.523 1.515.523 1.329 0 2.84-.718 4.042-1.922l-1.414-1.414c-1.011 1.012-2.131 1.333-2.673 1.335-.011-.451.223-1.542 1.345-2.664l-1.414-1.414c-1.132 1.132-1.597 2.252-1.788 2.992-.282 1.102-.141 2.036.387 2.564z"/><path style="fill:#8fcbb6;" d="m46.093 32.093c-3.478 3.478-4.105 8.508-1.4 11.213 1.132 1.133 2.672 1.681 4.334 1.681 2.31 0 4.857-1.059 6.879-3.081 3.478-3.478 4.105-8.508 1.4-11.213-2.704-2.706-7.736-2.077-11.213 1.4zm9.8.014c1.926 1.926 1.298 5.688-1.4 8.385-2.697 2.698-6.46 3.327-8.385 1.4-1.926-1.926-1.298-5.688 1.4-8.385 1.642-1.642 3.676-2.517 5.453-2.517 1.142.001 2.178.364 2.932 1.117z"/><path style="fill:#8fcbb6;" d="m35 23c2.206 0 4-2.243 4-5s-1.794-5-4-5-4 2.243-4 5 1.794 5 4 5zm0-8c1.084 0 2 1.374 2 3s-.916 3-2 3-2-1.374-2-3 .916-3 2-3z"/><path style="fill:#8fcbb6;" d="m45 28c2.206 0 4-2.243 4-5s-1.794-5-4-5-4 2.243-4 5 1.794 5 4 5zm0-8c1.084 0 2 1.374 2 3s-.916 3-2 3-2-1.374-2-3 .916-3 2-3z"/></svg>