<svg id="icons" enable-background="new 0 0 64 64" height="512" viewBox="0 0 64 64" width="512" xmlns="http://www.w3.org/2000/svg"><path style="fill:#8fcbb6;" d="m32 0c-14.337 0-26 11.663-26 26v12c0 14.337 11.663 26 26 26s26-11.663 26-26v-12c0-14.337-11.663-26-26-26zm24 38c0 13.233-10.767 24-24 24s-24-10.767-24-24v-2.007c3.925 9.391 13.203 16.007 24 16.007s20.075-6.616 24-16.007zm-24 12c-13.233 0-24-10.767-24-24s10.767-24 24-24 24 10.767 24 24-10.767 24-24 24z"/><path style="fill:#8fcbb6;" d="m31.999 3.001c-6.144 0-11.919 2.392-16.262 6.735-8.741 8.741-8.936 22.813-.634 31.824.078.164.204.293.354.393.097.101.18.21.279.31 3.573 3.574 8.123 5.801 13.044 6.487.073.017.142.044.219.044.012 0 .021-.007.034-.007.978.125 1.964.212 2.966.212s1.989-.087 2.967-.212c.012 0 .022.007.034.007.078 0 .147-.027.221-.045 4.92-.687 9.47-2.913 13.042-6.487.1-.099.184-.209.28-.31.147-.098.271-.224.349-.383 3.932-4.257 6.109-9.74 6.108-15.569 0-6.144-2.393-11.919-6.737-16.263-4.344-4.343-10.119-6.736-16.264-6.736zm.001 16.999c3.309 0 6 2.691 6 6s-2.691 6-6 6-6-2.691-6-6 2.691-6 6-6zm9.143 5h-1.212c-.11-.88-.366-1.714-.739-2.481v-2.269c.592.346 1.27.559 2.002.559h.002c.73 0 1.408-.213 1.998-.557v2.199c-1.006.515-1.76 1.434-2.051 2.549zm-1.969 6.759-.861-.861c.859-1.106 1.436-2.44 1.618-3.897h1.068v4.211c-.665.032-1.283.227-1.825.547zm-14.346.001c-.542-.32-1.161-.516-1.826-.549v-4.21h1.067c.184 1.458.76 2.792 1.62 3.897zm-.018-11.51v2.267c-.374.769-.63 1.604-.74 2.484h-1.21c-.291-1.115-1.047-2.034-2.052-2.549v-2.2c.59.344 1.267.557 1.998.557h.002c.732 0 1.411-.213 2.002-.559zm-2.003 12.941c1.104.001 2.001.899 2.002 2.003 0 1.102-.897 1.998-2.002 1.998l-.003 1v-1c-1.066 0-1.935-.847-1.986-1.904v-.097c0-.012-.006-.021-.007-.032.019-1.087.906-1.967 1.996-1.968zm-1.99 5.451c.588.341 1.26.551 1.986.551h.004c.731 0 1.407-.211 1.998-.555v7.076c-1.394-.507-2.729-1.157-3.988-1.954zm5.983-3.358c0-.031.009-.06.009-.091 0-.739-.216-1.424-.567-2.019l.862-.862c1.105.859 2.44 1.436 3.897 1.618v1.212c-1.72.447-3 2-3.001 3.859v7.613c-.403-.078-.798-.186-1.194-.285v-11.014c0-.01-.006-.02-.006-.031zm5.201 1.716c1.103 0 1.999.897 2 1.999-.001 1.104-.897 2.001-1.996 2.001h-.004c-1.104 0-2.001-.896-2.001-1.997.001-1.105.898-2.003 2.001-2.003zm4 2c0-.001 0-.001 0 0-.001-1.858-1.28-3.41-3-3.857v-1.212c1.457-.184 2.791-.759 3.897-1.619l.862.862c-.353.595-.568 1.28-.568 2.021 0 .031.009.06.009.091 0 .011-.006.02-.006.03v11.014c-.396.101-.791.208-1.194.285zm3.194-.362c.59.344 1.267.555 1.997.555h.005c.727 0 1.398-.21 1.986-.551v5.118c-1.26.796-2.596 1.446-3.988 1.954zm3.989-3.447v.095c-.052 1.06-.92 1.906-1.986 1.906h-.004c-1.104 0-2.001-.896-2.001-1.997.001-1.104.898-2.003 2-2.004 1.092.001 1.979.882 1.998 1.968-.002.011-.007.021-.007.032zm1.814-11.191c1.104.001 2.003.898 2.003 2 0 1.103-.896 2-1.999 2.001-1.104-.001-2.002-.898-2.003-2 .001-1.104.898-2.001 1.999-2.001zm-3.804-5.191c-1.104-.001-2.002-.898-2.003-1.999.002-1.104.899-2.002 1.999-2.002 1.104.001 2.003.897 2.003 1.999 0 1.103-.896 2.001-1.999 2.002zm-8.194-.74v-1.211c.355-.093.689-.233 1-.415v1.82c-.326-.084-.659-.151-1-.194zm-1-3.069c-1.103 0-2-.897-2-2s.897-2 2-2 2 .897 2 2-.897 2-2 2zm-2 1.443c.311.182.645.322 1 .415v1.211c-.341.043-.674.109-1 .194zm-7.193 2.366c-1.103-.001-1.999-.898-1.999-2.002 0-1.102.898-1.998 2.002-1.999 1.101 0 1.998.898 2 1.999-.001 1.103-.9 2.001-2.003 2.002zm-3.805 5.191c1.1 0 1.996.895 1.999 1.994 0 .002-.001.004-.001.007 0 .002.001.004.001.006-.005 1.1-.901 1.993-2.002 1.994-1.103-.001-1.999-.898-1.999-2.001 0-1.102.898-1.999 2.002-2zm-2.002 16.681v-11.237c.59.345 1.268.557 1.998.557h.002c.732 0 1.41-.213 2.002-.559v2.201c-1.295.663-2.193 1.997-2.194 3.549 0 .033.009.063.01.097v7.052c-.576-.467-1.135-.961-1.666-1.492-.054-.054-.099-.114-.152-.168zm13 6.22v-4.458c.591.345 1.269.557 2 .557h.005c.73 0 1.406-.212 1.996-.556v4.457c-.661.063-1.328.098-2.001.098-.672 0-1.339-.035-2-.098zm15.184-4.561v-7.053c.001-.033.01-.063.01-.097-.001-1.551-.899-2.884-2.194-3.547v-2.201c.591.346 1.27.559 2.002.559h.002c.731 0 1.408-.212 1.998-.557v11.236c-.053.054-.098.113-.151.167-.533.532-1.091 1.026-1.667 1.493zm3.817-4.046v-12.294c0-2.137-1.692-3.874-3.808-3.98v-5.213c0-2.204-1.795-3.998-4.002-3.999-2.201 0-3.995 1.793-4 3.999v.001 2.587l-.294.294c-.284-.222-.584-.424-.897-.606v-6.083c0-2.206-1.794-4-4-4s-4 1.794-4 4v6.082c-.313.183-.613.385-.898.606l-.292-.292v-2.589s0 0 0-.001v-.001c-.004-2.204-1.798-3.998-4.001-3.998-2.206.001-4.001 1.795-4.001 3.999v5.213c-2.115.107-3.808 1.844-3.808 3.981v12.286c-5.934-8.204-5.232-19.752 2.151-27.136 3.966-3.966 9.238-6.149 14.848-6.149s10.884 2.185 14.85 6.15c3.966 3.966 6.151 9.24 6.151 14.849 0 4.482-1.415 8.737-3.999 12.294z"/><path style="fill:#8fcbb6;" d="m32.03 27.002c.552 0 1-.447 1-1s-.448-1-1-1h-.01c-.552 0-.994.447-.994 1s.452 1 1.004 1z"/></svg>