<?xml version="1.0" encoding="iso-8859-1"?>
<!-- Generator: Adobe Illustrator 19.0.0, SVG Export Plug-In . SVG Version: 6.00 Build 0)  -->
<svg version="1.1" id="Capa_1" xmlns="http://www.w3.org/2000/svg" xmlns:xlink="http://www.w3.org/1999/xlink" x="0px" y="0px"
	 viewBox="0 0 498.696 498.696" style="enable-background:new 0 0 498.696 498.696;" xml:space="preserve">
<g>
	<g>
		<path style="fill:#8fcbb6;" d="M396.52,385.596c-7.048-23.952-26.408-42.816-50.52-49.24l-79.304-21.152v-20.04c15.768-11.384,27.92-27.4,34.496-46.064
			c20.872-1.32,37.504-18.552,37.504-39.752v-80c0-70.576-57.424-128-128-128s-128,57.424-128,128v80
			c0,21.2,16.632,38.432,37.504,39.752c6.568,18.672,18.72,34.688,34.496,46.064v20.144l-72.32,20.664
			c-23.856,6.824-42.288,25.104-49.288,48.912L0,497.348h429.392L396.52,385.596z M305.416,232.276
			c0.768-4.88,1.28-9.84,1.28-14.928V186.82c9.288,3.312,16,12.112,16,22.528C322.696,220.236,315.368,229.348,305.416,232.276z
			 M98.696,209.348c0-10.416,6.712-19.216,16-22.528v30.528c0,5.088,0.512,10.048,1.28,14.92
			C106.024,229.348,98.696,220.236,98.696,209.348z M114.696,129.348v40.808c-5.944,1.216-11.328,3.856-16,7.392v-48.2
			c0-61.76,50.24-112,112-112s112,50.24,112,112v48.208c-4.672-3.536-10.056-6.184-16-7.392v-4.744
			c0-19.904-6.848-39.432-19.28-54.976L267.848,85.98l-13.656,11.384c-24.752,20.624-56.136,31.984-88.36,31.984H114.696z
			 M130.696,217.348v-72h35.136c35.96,0,70.976-12.68,98.608-35.704l1.112-0.92l9.368,11.712
			c10.176,12.712,15.776,28.688,15.776,44.976v51.936c0,44.112-35.888,80-80,80S130.696,261.46,130.696,217.348z M250.696,304.508
			v14.152c-4.08,4.952-17.424,18.688-40,18.688c-22.632,0-35.912-13.696-40-18.68v-14.16c12.192,5.616,25.712,8.84,40,8.84
			C224.984,313.348,238.504,310.124,250.696,304.508z M338.632,424.356l-15.872,1.984l6.872,55.008H99.76l6.872-55.008
			l-15.872-1.984l-7.128,56.992h-62.24l27.04-91.944c5.456-18.52,19.784-32.744,38.336-38.04L159.8,330.5
			c7.024,7.888,23.912,22.848,50.896,22.848c27.088,0,43.984-15.064,50.976-22.928l80.208,21.392
			c18.76,5,33.816,19.68,39.296,38.304L408,481.348h-62.24L338.632,424.356z"/>
	</g>
</g>
<g>
	<g>
		<path style="fill:#8fcbb6;" d="M474.696,337.348v-64h16v-128h-48v16h-32v25.056l-41.208,5.888c-8.432,1.208-14.792,8.544-14.792,17.056
			c0,8.512,6.36,15.848,14.792,17.056l41.208,5.888v25.056h32v16h16v64h-24v128c0,17.648,14.352,32,32,32s32-14.352,32-32v-128
			H474.696z M410.696,216.116l-38.944-5.56c-0.608-0.08-1.056-0.592-1.056-1.208c0-0.616,0.448-1.128,1.056-1.208l38.944-5.568
			V216.116z M442.696,241.348h-16v-64h16V241.348z M458.696,161.348h16v96h-16V161.348z M482.696,465.348c0,8.824-7.176,16-16,16
			c-8.824,0-16-7.176-16-16v-112h32V465.348z"/>
	</g>
</g>
<g>
</g>
<g>
</g>
<g>
</g>
<g>
</g>
<g>
</g>
<g>
</g>
<g>
</g>
<g>
</g>
<g>
</g>
<g>
</g>
<g>
</g>
<g>
</g>
<g>
</g>
<g>
</g>
<g>
</g>
</svg>
