<?xml version="1.0" encoding="iso-8859-1"?>
<!-- Generator: Adobe Illustrator 19.0.0, SVG Export Plug-In . SVG Version: 6.00 Build 0)  -->
<svg version="1.1" id="Capa_1" xmlns="http://www.w3.org/2000/svg" xmlns:xlink="http://www.w3.org/1999/xlink" x="0px" y="0px"
	 viewBox="0 0 463.64 463.64" style="enable-background:new 0 0 463.64 463.64;" xml:space="preserve">
<g>
	<g>
		<path style="fill:#8fcbb6;" d="M423.86,61.024c-0.036-0.036-0.071-0.071-0.107-0.107h0.08c-52.829-52.979-138.53-53.336-191.8-0.8
			C178.671,7.153,92.477,7.475,39.513,60.837s-52.642,139.556,0.72,192.52l187.4,188c1.059,1.067,2.497,1.671,4,1.68h0.72
			c1.503-0.009,2.941-0.613,4-1.68l187.4-188C476.894,200.275,476.942,114.164,423.86,61.024z M415.793,245.317L415.793,245.317
			l-183.76,184.48l-183.76-184.48c-10.806-10.79-19.525-23.483-25.72-37.44l93.48,0.24c2.495,0.006,4.702-1.617,5.44-4l24.28-79.28
			l26.28,186.8c0.392,2.761,2.731,4.829,5.52,4.88c2.767,0.001,5.132-1.993,5.6-4.72l21.2-124l22.32,65.52
			c1.022,2.966,4.254,4.542,7.22,3.521c1.875-0.646,3.277-2.223,3.7-4.161l21.48-100l10.88,133.8
			c0.254,3.127,2.994,5.456,6.121,5.202c2.473-0.201,4.529-1.983,5.079-4.402l23.64-104l18.28,79.8
			c0.681,3.062,3.716,4.992,6.778,4.311c1.978-0.44,3.571-1.9,4.182-3.831l18-55.72l89.28,0.28
			C435.153,221.973,426.503,234.581,415.793,245.317z M348.033,196.477c-2.48,0.011-4.666,1.631-5.4,4l-12.96,40l-19.24-84
			c-0.62-2.599-2.969-4.414-5.64-4.36c-2.651,0.011-4.941,1.853-5.52,4.44l-21,92.24l-11-135.24
			c-0.286-3.124-3.05-5.425-6.174-5.139c-2.458,0.225-4.489,2.011-5.026,4.419l-25.28,117.36l-22.76-67.44
			c-0.985-2.978-4.199-4.594-7.177-3.608c-2.012,0.666-3.486,2.396-3.823,4.488l-18.92,110.12l-24.48-176
			c-0.453-3.104-3.337-5.253-6.441-4.8c-2.159,0.315-3.946,1.839-4.599,3.92l-30.56,99.92l-93.84-0.28
			c-14.893-44.787-3.254-94.145,30.08-127.56v-0.04c48.704-48.692,127.656-48.692,176.36,0l3.36,3.36c2.214,2.196,5.786,2.196,8,0
			l3.36-3.36c48.612-48.769,127.555-48.896,176.324-0.284c33.647,33.539,45.31,83.285,30.076,128.284L348.033,196.477z"/>
	</g>
</g>
<g>
</g>
<g>
</g>
<g>
</g>
<g>
</g>
<g>
</g>
<g>
</g>
<g>
</g>
<g>
</g>
<g>
</g>
<g>
</g>
<g>
</g>
<g>
</g>
<g>
</g>
<g>
</g>
<g>
</g>
</svg>
