<svg id="Layer_1" enable-background="new 0 0 512 512" height="512" viewBox="0 0 512 512" width="512" xmlns="http://www.w3.org/2000/svg"><path style="fill:#8fcbb6;" d="m25.87 512h331.438c4.142 0 7.5-3.358 7.5-7.5v-15.571c0-13.729-11.169-24.898-24.899-24.898h-58.426v-19.135c2.913-1.03 5-3.807 5-7.073s-2.087-6.043-5-7.073v-19.192h12.57c4.142 0 7.5-3.358 7.5-7.5v-21.552h41.544c4.142 0 7.5-3.358 7.5-7.5v-30.315c0-4.142-3.358-7.5-7.5-7.5h-176.698c-4.142 0-7.5 3.358-7.5 7.5v21.323c-30.567-6.534-53.559-33.753-53.559-66.241 0-37.348 30.385-67.733 67.733-67.733h14.777v18.868c0 4.142 3.358 7.5 7.5 7.5h1.487v10.65c-2.617 1.17-4.441 3.797-4.441 6.85s1.824 5.679 4.441 6.85v27.772c0 4.142 3.358 7.5 7.5 7.5h38.469c4.142 0 7.5-3.358 7.5-7.5v-27.772c2.617-1.17 4.441-3.797 4.441-6.85s-1.824-5.679-4.441-6.85v-10.65h18.882v10.651c-2.617 1.171-4.441 3.797-4.441 6.849s1.824 5.679 4.441 6.849v19.772c0 4.142 3.358 7.5 7.5 7.5h28.469c4.142 0 7.5-3.358 7.5-7.5v-19.772c2.617-1.17 4.441-3.797 4.441-6.85s-1.824-5.679-4.441-6.85v-10.65h1.487c4.142 0 7.5-3.358 7.5-7.5v-26.367c0-4.142-3.358-7.5-7.5-7.5h-12.593v-83.58c0-4.142-3.358-7.5-7.5-7.5s-7.5 3.358-7.5 7.5v83.58h-63.61v-44.636c21.292-3.582 37.566-22.146 37.566-44.441s-16.273-40.86-37.566-44.441v-4.144h63.61v19.082c0 4.142 3.358 7.5 7.5 7.5s7.5-3.358 7.5-7.5v-26.583c0-4.142-3.358-7.5-7.5-7.5h-11.656v-24.377h.988c10.018 0 18.168-8.15 18.168-18.167v-14.333c0-4.142-3.358-7.5-7.5-7.5h-78.61c-4.142 0-7.5 3.358-7.5 7.5v14.333c0 10.018 8.15 18.167 18.167 18.167h.988v24.377h-11.656c-4.142 0-7.5 3.358-7.5 7.5v11.644c-20.436 3.438-36.247 20.677-37.487 41.769-37.656 8.928-71.798 30.115-96.679 60.129-26.563 32.046-41.194 72.658-41.194 114.354 0 49.042 19.422 94.827 54.69 128.921 2.979 2.88 7.727 2.798 10.605-.179 2.879-2.978 2.799-7.726-.179-10.605-32.317-31.243-50.116-73.198-50.116-118.137 0-75.53 51.927-141.405 124.521-159.45 4.717 16.516 18.642 29.187 35.842 32.08v44.636c-12.057 0-22.791 0-34.87 0-45.619 0-82.733 37.114-82.733 82.733 0 42.417 32.086 77.481 73.262 82.195.864.348 44.341.539 44.341.539v21.552 26.692c-2.913 1.03-5 3.807-5 7.073s2.087 6.043 5 7.073v19.135h-.189c-3.97-.103-9.235-.38-15.341-1.101-.12-.014-.239-.025-.358-.034-24.056-2.894-46.675-10.885-67.231-23.755-3.511-2.199-8.139-1.134-10.337 2.377s-1.134 8.139 2.377 10.337c7.416 4.643 15.079 8.705 22.962 12.176h-96.557c-13.729 0-24.899 11.169-24.899 24.898v15.571c0 4.142 3.358 7.5 7.5 7.5zm197.073-490.167v-6.833h63.61v6.833c0 1.747-1.421 3.167-3.168 3.167-33.324 0-23.561 0-57.274 0-1.747 0-3.168-1.421-3.168-3.167zm19.156 18.167h25.298v24.377h-25.298zm-30.261 263.029v-19.622h23.469v19.622zm23.469-34.621h-23.469v-10h23.469zm48.883 26.621v-11.622h13.469v11.622zm13.469-26.621h-13.469v-10h13.469zm-112.281-140.446c0-16.579 13.487-30.066 30.066-30.066s30.066 13.487 30.066 30.066-13.487 30.066-30.066 30.066-30.066-13.487-30.066-30.066zm121.268 104.078v11.368h-1.487c-10.006 0-90.048 0-102.308 0v-11.368zm-40.163 198.283h-43.54v-18.765h43.54zm69.115-78.132v15.315c-34.655 0-126.948 0-161.699 0v-15.315zm-49.045 30.316v14.052h-12.57-51.04v-14.052zm-63.61 62.816h43.54v18.708h-43.54zm-189.573 43.606c0-5.458 4.44-9.898 9.899-9.898 203.316.065 271.625 0 296.641 0 5.458 0 9.899 4.44 9.899 9.898v8.071h-316.439z"/><path style="fill:#8fcbb6;" d="m235.509 127.962c0-11.064-9.001-20.066-20.066-20.066s-20.066 9.001-20.066 20.066 9.001 20.066 20.066 20.066 20.066-9.002 20.066-20.066zm-25.131 0c0-2.793 2.272-5.066 5.066-5.066s5.066 2.272 5.066 5.066-2.272 5.066-5.066 5.066-5.066-2.273-5.066-5.066z"/><path style="fill:#8fcbb6;" d="m359.695 304.927 1.302 24.678c.287 5.436 6.08 8.738 10.893 6.289l22.012-11.207c8.078-4.114 11.75-.628 25.492-1.159 39.336-1.514 71.608-32.891 74.08-72.246 2.875-45.768-34.246-83.676-79.655-82.214-17.694.567-34.831 7.358-48.254 19.124-3.115 2.73-3.427 7.469-.697 10.583 2.729 3.116 7.468 3.427 10.583.697 10.819-9.482 24.616-14.956 38.848-15.412 35.875-1.126 66.575 28.54 64.204 66.282-1.973 31.421-28.19 56.985-59.686 58.197-11.321.44-19.261-3.563-31.721 2.781l-11.728 5.971-.694-13.153c-.371-7.028-2.934-13.77-7.414-19.498-8.691-11.113-13.251-24.465-13.189-38.614.029-6.658 1.125-13.221 3.257-19.506 1.331-3.923-.771-8.181-4.693-9.512-3.922-1.33-8.181.771-9.512 4.693-2.652 7.819-4.015 15.981-4.052 24.258-.078 17.554 5.584 34.125 16.374 47.921 2.573 3.29 4.043 7.11 4.25 11.047z"/><path style="fill:#8fcbb6;" d="m438.154 249.493c11.131 0 20.188-9.056 20.188-20.187s-9.056-20.188-20.188-20.188-20.187 9.056-20.187 20.188 9.056 20.187 20.187 20.187zm0-25.375c2.86 0 5.188 2.327 5.188 5.188s-2.327 5.187-5.188 5.187-5.187-2.327-5.187-5.187 2.327-5.188 5.187-5.188z"/><path style="fill:#8fcbb6;" d="m393 281.958c11.131 0 20.187-9.056 20.187-20.188s-9.056-20.187-20.187-20.187-20.188 9.056-20.188 20.187 9.056 20.188 20.188 20.188zm0-25.375c2.86 0 5.187 2.327 5.187 5.187s-2.327 5.188-5.187 5.188-5.188-2.327-5.188-5.188 2.327-5.187 5.188-5.187z"/><circle style="fill:#8fcbb6;" cx="400.499" cy="216.618" r="7.5"/><circle style="fill:#8fcbb6;" cx="454.648" cy="261.77" r="7.5"/><circle style="fill:#8fcbb6;" cx="423.851" cy="285.908" r="7.5"/></svg>