<svg id="Layer_3" enable-background="new 0 0 64 64" height="512" viewBox="0 0 64 64" width="512" xmlns="http://www.w3.org/2000/svg"><path style="fill:#8fcbb6;" d="m51.099 20c-2.255 0-4.408.967-5.906 2.652l-5.812 6.539-.381.191c-.016-1.175-.877-2.144-2-2.34v-2.115c1.816-.265 3.487-1.243 4.6-2.727l1.2-1.6c.228-.304.264-.709.095-1.048s-.516-.552-.895-.552h-4.382l1.276-2.553c.155-.31.138-.678-.044-.973s-.503-.474-.85-.474h-1v-2.073c1.816-.265 3.487-1.243 4.6-2.727l1.2-1.6c.228-.304.264-.709.095-1.048s-.516-.552-.895-.552h-4.382l1.276-2.553c.155-.31.138-.678-.044-.973s-.503-.474-.85-.474h-1v-2h-2v2h-6v-2h-2v2h-1c-.347 0-.668.18-.851.475s-.199.663-.044.973l1.277 2.552h-4.382c-.379 0-.725.214-.895.553s-.132.744.095 1.048l1.2 1.599c1.113 1.484 2.784 2.463 4.6 2.728v2.072h-1c-.347 0-.668.18-.851.475s-.199.663-.044.973l1.277 2.552h-4.382c-.379 0-.725.214-.895.553s-.133.744.095 1.048l1.2 1.599c1.113 1.484 2.784 2.463 4.6 2.728v2.115c-1.123.196-1.984 1.165-2 2.34l-.381-.19-5.812-6.539c-1.498-1.687-3.651-2.654-5.906-2.654-4.357 0-7.901 3.545-7.901 7.901v1.24c0 2.111.822 4.095 2.314 5.587l2.857 2.857c1.18 1.181 1.829 2.748 1.829 4.415 0 2.201.857 4.271 2.414 5.828l.758.758c1.179 1.18 1.828 2.747 1.828 4.414v4.232c0 3.181 2.587 5.768 5.767 5.768 1.716 0 3.331-.756 4.43-2.075l2.291-2.749c.623-.747 1.538-1.176 2.512-1.176s1.889.429 2.512 1.176l2.291 2.75c1.099 1.318 2.714 2.074 4.43 2.074 3.18 0 5.767-2.587 5.767-5.768v-4.232c0-1.667.649-3.234 1.828-4.414l.758-.758c1.557-1.557 2.414-3.627 2.414-5.828 0-1.667.649-3.234 1.828-4.414l2.857-2.857c1.493-1.493 2.315-3.476 2.315-5.587v-1.24c0-4.357-3.544-7.902-7.901-7.902zm-23.099-9c-1.565 0-3.06-.747-4-2h4c.347 0 .668-.18.851-.475s.199-.663.044-.973l-1.277-2.552h8.764l-1.276 2.553c-.155.31-.138.678.044.973s.503.474.85.474h4c-.939 1.252-2.434 2-4 2-.552 0-1 .447-1 1v3h-6v-3c0-.553-.448-1-1-1zm-4 10h4c.347 0 .668-.18.851-.475s.199-.663.044-.973l-1.277-2.552h8.764l-1.276 2.553c-.155.31-.138.678.044.973s.503.474.85.474h4c-.939 1.252-2.434 2-4 2-.552 0-1 .447-1 1v3.608c-.039.034-.084.062-.121.099l-.172.172c-1.446 1.445-3.968 1.445-5.414 0l-.172-.173c-.037-.037-.081-.064-.121-.098v-3.608c0-.553-.448-1-1-1-1.565 0-3.06-.747-4-2zm33 8.142c0 1.576-.614 3.059-1.729 4.173l-2.857 2.857c-1.557 1.557-2.414 3.627-2.414 5.828 0 1.667-.649 3.234-1.828 4.414l-.758.758c-.805.805-1.418 1.749-1.827 2.775-1.563 1.322-3.535 2.053-5.587 2.053-1.654 0-3 1.346-3 3s1.346 3 3 3 3-1.346 3-3c0-.486-.127-.939-.334-1.346.816-.211 1.602-.52 2.346-.917-.002.088-.012.174-.012.263v4.232c0 2.078-1.69 3.768-3.767 3.768-1.121 0-2.176-.494-2.894-1.354l-2.29-2.749c-1.004-1.206-2.48-1.897-4.049-1.897s-3.045.691-4.048 1.896l-2.291 2.748c-.718.862-1.773 1.356-2.894 1.356-2.077 0-3.767-1.69-3.767-3.768v-4.232c0-.089-.01-.175-.013-.264.744.397 1.53.707 2.346.917-.206.408-.333.861-.333 1.347 0 1.654 1.346 3 3 3s3-1.346 3-3-1.346-3-3-3c-2.052 0-4.024-.731-5.587-2.053-.409-1.026-1.023-1.97-1.827-2.775l-.758-.758c-1.179-1.18-1.828-2.747-1.828-4.414 0-2.201-.857-4.271-2.414-5.828l-2.857-2.857c-1.115-1.115-1.729-2.597-1.729-4.173v-1.24c0-3.255 2.647-5.902 5.901-5.902 1.685 0 3.292.722 4.411 1.98l4.797 5.397c-1.821.748-3.109 2.536-3.109 4.623 0 2.16.633 4.253 1.832 6.051l.322.482c-.737.998-1.154 2.22-1.154 3.467 0 1.534.622 3.036 1.707 4.121l1.172 1.172c1.1 1.101 2.564 1.707 4.121 1.707 1.103 0 2 .897 2 2h2c0-2.206-1.794-4-4-4-1.022 0-1.984-.398-2.707-1.121l-1.172-1.172c-.712-.713-1.121-1.699-1.121-2.707s.409-1.994 1.121-2.707l.293-.293h.586c.551 0 1 .448 1 1 0 .94.449 1.837 1.2 2.399l2.401 1.802c.25.187.399.486.399.799v1h2v-1c0-.94-.449-1.837-1.2-2.399l-2.401-1.802c-.25-.187-.399-.486-.399-.799 0-1.654-1.346-3-3-3h-1c-.141 0-.278.034-.404.091l-.1-.149c-.978-1.469-1.496-3.178-1.496-4.942 0-1.58 1.228-2.879 2.78-2.992l1.773.887c.309.154.678.139.973-.044.294-.183.474-.504.474-.851v-1.586c0-.337.468-.531.707-.293l.172.172c1.1 1.101 2.564 1.707 4.121 1.707s3.021-.606 4.121-1.707l.171-.171c.241-.243.708-.045.708.292v1.586c0 .347.18.668.474.851.295.183.664.198.973.044l1.773-.887c1.552.113 2.78 1.412 2.78 2.992 0 1.764-.518 3.473-1.496 4.941l-.1.149c-.126-.056-.263-.09-.404-.09h-1c-1.654 0-3 1.346-3 3 0 .313-.149.612-.4.8l-2.4 1.8c-.751.563-1.2 1.46-1.2 2.4v1h2v-1c0-.313.149-.612.4-.8l2.4-1.8c.751-.563 1.2-1.46 1.2-2.4 0-.552.449-1 1-1h.586l.293.293c.712.713 1.121 1.699 1.121 2.707s-.409 1.994-1.121 2.707l-1.172 1.172c-.723.723-1.685 1.121-2.707 1.121-2.206 0-4 1.794-4 4h2c0-1.103.897-2 2-2 1.557 0 3.021-.606 4.121-1.707l1.172-1.172c1.085-1.085 1.707-2.587 1.707-4.121 0-1.247-.417-2.469-1.154-3.467l.322-.482c1.199-1.798 1.832-3.891 1.832-6.051 0-2.087-1.288-3.875-3.109-4.623l4.797-5.397c1.119-1.259 2.726-1.98 4.411-1.98 3.254 0 5.901 2.647 5.901 5.901zm-16 25.858c0 .552-.449 1-1 1s-1-.448-1-1 .449-1 1-1 1 .448 1 1zm-17-1c.551 0 1 .448 1 1s-.449 1-1 1-1-.448-1-1 .449-1 1-1z"/></svg>