<?xml version="1.0" encoding="iso-8859-1"?>
<!-- Generator: Adobe Illustrator 19.0.0, SVG Export Plug-In . SVG Version: 6.00 Build 0)  -->
<svg version="1.1" id="Capa_1" xmlns="http://www.w3.org/2000/svg" xmlns:xlink="http://www.w3.org/1999/xlink" x="0px" y="0px"
	 viewBox="0 0 480 480" style="enable-background:new 0 0 480 480;" xml:space="preserve">
<g>
	<g>
		<path style="fill:#8fcbb6;" d="M254.348,40h-80c-13.255,0-24-10.745-24-24V0h-64v13.344c-0.034,23.986,5.102,47.697,15.056,69.52
			c17.342,38.211,41.437,72.979,71.128,102.632l13.552,13.552c14.367,14.361,26.321,30.948,35.4,49.12
			c17.717,35.446,3.345,78.544-32.101,96.261c-9.957,4.977-20.935,7.569-32.067,7.571h-4.224
			c-39.759-0.115-77.91,15.687-105.944,43.88c-20.766,20.73-27.154,51.854-16.232,79.088L32.932,480h61.416v-8
			c0-17.673,14.327-32,32-32h128c110.457,0,200-89.543,200-200S364.805,40,254.348,40z M254.348,424h-128
			c-23.413,0.029-43.401,16.92-47.336,40H44.028c-5.978-20.149-0.434-41.953,14.44-56.8c25.039-25.182,59.113-39.298,94.624-39.2
			h4.224c48.464-0.003,87.749-39.294,87.746-87.758c-0.001-13.617-3.171-27.046-9.258-39.226
			c-9.85-19.708-22.816-37.697-38.4-53.272l-13.552-13.552c-28.345-28.298-51.348-61.481-67.904-97.952
			c-8.638-18.927-13.269-39.437-13.6-60.24h32c0.026,22.08,17.92,39.974,40,40h80c101.62,0,184,82.38,184,184
			S355.969,424,254.348,424z"/>
	</g>
</g>
<g>
	<g>
		<path style="fill:#8fcbb6;" d="M398.348,216H277.436c-13.255-0.001-24.001,10.743-24.002,23.998c0,2.88,0.518,5.737,1.53,8.434l1.768,4.704
			c16.949,45.179-4.622,95.7-48.976,114.704l-14.72,6.304c-8.951,3.856-13.082,14.239-9.226,23.19
			c2.784,6.463,9.141,10.654,16.178,10.666h54.36c92.74-0.106,167.894-75.26,168-168C422.348,226.745,411.603,216,398.348,216z
			 M254.348,392h-54.36c-0.91-0.004-1.645-0.745-1.641-1.656c0.003-0.654,0.392-1.244,0.992-1.505l14.712-6.304
			c52.207-22.375,77.6-81.841,57.656-135.024l-1.768-4.704c-1.551-4.137,0.546-8.748,4.683-10.299
			c0.899-0.337,1.852-0.51,2.813-0.509h120.912c4.418,0,8,3.582,8,8C406.251,323.907,338.255,391.903,254.348,392z"/>
	</g>
</g>
<g>
	<g>
		<rect style="fill:#8fcbb6;" x="358.348" y="248" width="16" height="16"/>
	</g>
</g>
<g>
	<g>
		<rect style="fill:#8fcbb6;" x="342.348" y="312" width="16" height="16"/>
	</g>
</g>
<g>
	<g>
		<rect style="fill:#8fcbb6;" x="294.348" y="344" width="16" height="16"/>
	</g>
</g>
<g>
	<g>
		<rect style="fill:#8fcbb6;" x="294.348" y="272" width="16" height="16"/>
	</g>
</g>
<g>
</g>
<g>
</g>
<g>
</g>
<g>
</g>
<g>
</g>
<g>
</g>
<g>
</g>
<g>
</g>
<g>
</g>
<g>
</g>
<g>
</g>
<g>
</g>
<g>
</g>
<g>
</g>
<g>
</g>
</svg>
