<svg style="fill:#8fcbb6;" height="512pt" viewBox="0 0 512.0016 512" width="512pt" xmlns="http://www.w3.org/2000/svg"><path style="fill:#8fcbb6;" d="m70 452h-20c-5.511719 0-10 4.492188-10 10 0 5.511719 4.488281 10 10 10h20c5.511719 0 10-4.488281 10-10 0-5.507812-4.488281-10-10-10zm0 0"/><path style="fill:#8fcbb6;" d="m110 452c-5.511719 0-10 4.492188-10 10 0 5.511719 4.488281 10 10 10s10-4.488281 10-10c0-5.507812-4.488281-10-10-10zm0 0"/><path style="fill:#8fcbb6;" d="m112 412h-62c-5.523438 0-10 4.480469-10 10 0 5.523438 4.476562 10 10 10h62c5.523438 0 10-4.476562 10-10s-4.476562-10-10-10zm0 0"/><path style="fill:#8fcbb6;" d="m230 413c-5.523438 0-10 4.480469-10 10v39c0 5.523438 4.476562 10 10 10s10-4.476562 10-10v-39c0-5.523438-4.476562-10-10-10zm0 0"/><path style="fill:#8fcbb6;" d="m270 413c-5.523438 0-10 4.480469-10 10v39c0 5.523438 4.476562 10 10 10s10-4.476562 10-10v-39c0-5.523438-4.476562-10-10-10zm0 0"/><path style="fill:#8fcbb6;" d="m330 412c-16.542969 0-30 13.457031-30 30s13.457031 30 30 30 30-13.457031 30-30-13.457031-30-30-30zm0 40c-5.515625 0-10-4.484375-10-10 0-5.511719 4.484375-10 10-10s10 4.488281 10 10c0 5.515625-4.484375 10-10 10zm0 0"/><path style="fill:#8fcbb6;" d="m342 302v-232c0-5.523438-4.476562-10-10-10h-282c-5.523438 0-10 4.476562-10 10v232c0 5.523438 4.476562 10 10 10h282c5.523438 0 10-4.476562 10-10zm-20-10h-262v-212h262zm0 0"/><path style="fill:#8fcbb6;" d="m90 272h10c5.523438 0 10-4.476562 10-10s-4.476562-10-10-10v-56c5.523438 0 10-4.476562 10-10s-4.476562-10-10-10v-56c5.523438 0 10-4.476562 10-10s-4.476562-10-10-10h-10c-5.523438 0-10 4.476562-10 10v152c0 5.523438 4.476562 10 10 10zm0 0"/><path style="fill:#8fcbb6;" d="m512 110v-20c0-16.542969-13.457031-30-30-30h-50c-16.542969 0-30 13.457031-30 30v20c0 1.492188.382812 3.132812 1.054688 4.472656l18.945312 37.886719v122.640625c0 15.824219 10.558594 29.222656 25 33.535156v93.464844c0 16.542969-13.457031 30-30 30h-17v-40c0-11.027344-8.972656-20-20-20h-79v-20h71c5.523438 0 10-4.476562 10-10v-312c0-5.523438-4.476562-10-10-10h-362c-5.523438 0-10 4.476562-10 10v312c0 5.523438 4.476562 10 10 10h71v20h-61c-11.027344 0-20 8.972656-20 20v100c0 11.027344 8.972656 20 20 20h360c11.027344 0 20-8.972656 20-20v-40h17c27.570312 0 50-22.429688 50-50v-93.464844c14.441406-4.3125 25-17.710937 25-33.535156v-122.640625s18.9375-37.875 18.945312-37.890625c.207032-.410156 1.054688-2.46875 1.054688-4.46875zm-492-70h342v292h-342zm81 312h180v20h-180zm279 140h-360v-100h360zm42-402c0-5.515625 4.484375-10 10-10h50c5.515625 0 10 4.484375 10 10v10h-70zm20 70h30v89h-30zm33.820312-20h-37.640624l-10-20h57.640624zm-3.820312 135c0 8.273438-6.730469 15-15 15s-15-6.730469-15-15v-6h30zm0 0"/><path style="fill:#8fcbb6;" d="m200 258.742188c28.972656 0 56.246094-10.488282 76.796875-29.539063 3.21875-2.984375 4.117187-7.71875 2.214844-11.671875l-25.570313-53.125c-1.222656-2.539062-3.460937-4.445312-6.160156-5.246094-2.703125-.804687-5.617188-.429687-8.027344 1.027344-19.824218 11.992188-58.730468 11.996094-78.542968 0-2.410157-1.457031-5.328126-1.832031-8.03125-1.027344-2.699219.804688-4.9375 2.710938-6.160157 5.25l-25.53125 53.125c-1.902343 3.957032-1.003906 8.6875 2.214844 11.667969 20.550781 19.046875 47.824219 29.539063 76.796875 29.539063zm-39.808594-76.605469c23.304688 9.269531 56.277344 9.269531 79.585938-.003907l17.871094 37.132813c-33.175782 25.992187-82.125 25.992187-115.300782 0zm0 0"/><path style="fill:#8fcbb6;" d="m252 120c5.519531 0 10-4.480469 10-10s-4.480469-10-10-10-10 4.480469-10 10 4.480469 10 10 10zm0 0"/><path style="fill:#8fcbb6;" d="m292 120c5.519531 0 10-4.480469 10-10s-4.480469-10-10-10-10 4.480469-10 10 4.480469 10 10 10zm0 0"/><path style="fill:#8fcbb6;" d="m280 160h12c5.523438 0 10-4.476562 10-10s-4.476562-10-10-10h-12c-5.523438 0-10 4.476562-10 10s4.476562 10 10 10zm0 0"/><path style="fill:#8fcbb6;" d="m190 412h-40c-5.523438 0-10 4.480469-10 10v40c0 5.523438 4.476562 10 10 10h40c5.523438 0 10-4.476562 10-10v-40c0-5.523438-4.476562-10-10-10zm-10 40h-20v-20h20zm0 0"/><path style="fill:#8fcbb6;" d="m418.644531 37.472656c26.167969-23.261718 50.542969-23.261718 76.710938 0 1.90625 1.695313 4.277343 2.527344 6.640625 2.527344 2.757812 0 5.503906-1.136719 7.480468-3.359375 3.667969-4.125 3.296876-10.445313-.832031-14.113281-33.785156-30.035156-69.5-30.035156-103.285156 0-4.128906 3.667968-4.5 9.988281-.832031 14.113281 3.667968 4.128906 9.988281 4.5 14.117187.832031zm0 0"/></svg>