<svg id="Layer_3" enable-background="new 0 0 64 64" height="512" viewBox="0 0 64 64" width="512" xmlns="http://www.w3.org/2000/svg"><path style="fill:#8fcbb6;" d="m59.207 4.793c-2.446-2.446-5.698-3.793-9.157-3.793h-.623c-2.43 0-4.803.681-6.87 1.972-3.168 1.981-6.819 3.028-10.557 3.028s-7.389-1.047-10.564-3.032c-2.061-1.287-4.434-1.968-6.863-1.968h-.623c-3.459 0-6.711 1.347-9.157 3.793s-3.793 5.698-3.793 9.157c0 3.524 1.373 6.837 3.864 9.329l1.867 1.867c1.82 1.82 4.234 2.828 6.804 2.851 1.816 2.193 4.424 3.612 7.24 3.932.694 2.506 1.836 4.888 3.402 6.975l1.047 1.396c2.435 3.245 3.776 7.269 3.776 11.328v11.372h2v-11.372c0-4.489-1.483-8.938-4.177-12.53l-1.047-1.396c-2.435-3.247-3.776-7.271-3.776-11.33 0-4.378-1.345-8.576-3.89-12.138l-1.296-1.815c-.032-.045-.068-.087-.107-.126l-2.757-2.757c-.991-.991-2.307-1.536-3.707-1.536-2.891 0-5.243 2.352-5.243 5.243v.315c0 3 2.441 5.442 5.442 5.442.779 0 1.542.268 2.15.754l2.516 2.014c.567.453.892 1.129.892 1.855 0 1.311-1.066 2.377-2.377 2.377-2.069 0-4.015-.806-5.478-2.269l-1.867-1.867c-2.114-2.114-3.278-4.925-3.278-7.914 0-2.925 1.139-5.674 3.207-7.743 2.068-2.068 4.818-3.207 7.743-3.207h.623c2.054 0 4.061.576 5.809 1.668 3.488 2.18 7.505 3.332 11.618 3.332s8.13-1.152 11.624-3.335c1.742-1.089 3.749-1.665 5.803-1.665h.623c2.925 0 5.674 1.139 7.743 3.207 2.068 2.068 3.207 4.818 3.207 7.743 0 2.99-1.164 5.8-3.278 7.915l-1.867 1.867c-1.463 1.462-3.409 2.268-5.478 2.268-1.311 0-2.377-1.066-2.377-2.377 0-.726.325-1.402.893-1.856l2.515-2.013c.608-.486 1.371-.754 2.15-.754 3 0 5.442-2.441 5.442-5.442v-.315c0-2.891-2.352-5.243-5.243-5.243-1.4 0-2.717.545-3.707 1.536l-2.757 2.757c-.039.039-.075.081-.107.126l-1.296 1.815c-2.545 3.562-3.89 7.76-3.89 12.138 0 4.059-1.341 8.083-3.776 11.33l-1.047 1.396c-2.694 3.591-4.177 8.041-4.177 12.53v11.372h2v-11.372c0-4.059 1.341-8.083 3.776-11.33l1.047-1.396c1.565-2.087 2.707-4.469 3.402-6.975 2.816-.32 5.424-1.739 7.24-3.932 2.57-.023 4.984-1.03 6.804-2.851l1.867-1.867c2.491-2.49 3.864-5.803 3.864-9.327 0-3.459-1.347-6.711-3.793-9.157zm-42.85 15.413-2.516-2.013c-.961-.77-2.168-1.193-3.399-1.193-1.898 0-3.442-1.544-3.442-3.442v-.315c0-1.788 1.455-3.243 3.243-3.243.866 0 1.68.337 2.293.95l2.699 2.699 1.248 1.748c2.301 3.221 3.517 7.016 3.517 10.975 0 1.157.102 2.311.295 3.449-1.717-.335-3.308-1.164-4.565-2.385 1.346-.747 2.27-2.167 2.27-3.813 0-1.337-.599-2.583-1.643-3.417zm27.643 6.166c0-3.959 1.216-7.754 3.518-10.976l1.248-1.748 2.699-2.699c.613-.612 1.427-.95 2.293-.95 1.787.001 3.242 1.456 3.242 3.244v.315c0 1.898-1.544 3.442-3.442 3.442-1.231 0-2.438.423-3.4 1.192l-2.515 2.013c-1.044.835-1.643 2.081-1.643 3.418 0 1.646.924 3.065 2.27 3.813-1.258 1.221-2.848 2.05-4.565 2.385.193-1.138.295-2.292.295-3.449z"/><path style="fill:#8fcbb6;" d="m33 41v-.685c0-3.185 1.155-6.259 3.252-8.656 2.417-2.762 3.748-6.304 3.748-9.974v-.12c0-1.582.282-3.134.837-4.616l2.099-5.598-1.873-.702-2.099 5.598c-.639 1.707-.964 3.496-.964 5.318v.12c0 3.185-1.155 6.259-3.252 8.656-1.19 1.36-2.113 2.91-2.748 4.57-.634-1.66-1.558-3.211-2.748-4.57-2.097-2.397-3.252-5.471-3.252-8.656v-.12c0-1.822-.325-3.611-.964-5.318l-2.099-5.598-1.873.702 2.099 5.598c.555 1.482.837 3.034.837 4.616v.12c0 3.67 1.331 7.212 3.748 9.974 2.097 2.397 3.252 5.471 3.252 8.656v.685z"/></svg>