<?xml version="1.0" encoding="UTF-8"?>
<!DOCTYPE svg PUBLIC "-//W3C//DTD SVG 1.1//EN" "http://www.w3.org/Graphics/SVG/1.1/DTD/svg11.dtd">
<!-- Creator: CorelDRAW 2018 (64 Bit Versão de avaliação) -->
<svg xmlns="http://www.w3.org/2000/svg" xml:space="preserve" width="210mm" height="297mm" version="1.1" style="shape-rendering:geometricPrecision; text-rendering:geometricPrecision; image-rendering:optimizeQuality; fill-rule:evenodd; clip-rule:evenodd"
viewBox="0 0 21000 29700"
 xmlns:xlink="http://www.w3.org/1999/xlink">
 <defs>
  <style type="text/css">
   <![CDATA[
    .fil0 {fill:#F4FCF9}
   ]]>
  </style>
 </defs>
 <g id="Camada_x0020_1">
  <metadata id="CorelCorpID_0Corel-Layer"/>
  <g id="_2104243127568">
   <path class="fil0" d="M6636.66 12052.13c-158.19,-105.93 -98.77,-156.79 -317.5,-105.83 5.08,227.87 250.64,448.81 423.33,564.45 62.5,-93.33 135.9,-154.73 220.53,-238.09 92.35,-90.98 189.56,-131.87 202.81,-291.08 -173.15,-141.67 -180.11,-21.45 -317.5,70.55 74.67,-320.53 117.59,-457.89 325.11,-662.66 505.83,-499.11 1357.1,-319.64 1651.35,308.98 434.49,928.23 -603.09,1849.71 -1469.02,1327.9 -314.84,-189.72 -199.09,-283.75 -436.89,-233.38 0,201.82 44.41,258.16 296.18,409.37 187.38,112.54 374.38,172.14 554.19,190.35l242.53 0c636.19,-65.29 1129.6,-630.97 1129.6,-1128.89l0 -211.67c0,-583.08 -576.05,-1164.16 -1164.17,-1164.16 -438.31,0 -641.4,21.32 -997.28,378.55 -183.18,183.87 -343.27,433.97 -343.27,785.61z"/>
   <path class="fil0" d="M7553.88 11769.91c0,1054.33 -73.3,936.76 470.34,646.73 103.73,-55.34 151.27,-78.94 251.23,-136.82 126.48,-73.23 157.85,-50.82 195.65,-192.41 -92.47,-21.54 -372.07,-183.35 -465.42,-240.13 -74.77,-45.48 -451.8,-315.06 -451.8,-77.37z"/>
  </g>
 </g>
</svg>
